<svg width="66" height="50" viewBox="0 0 66 50" fill="none" xmlns="http://www.w3.org/2000/svg">
<path fill-rule="evenodd" clip-rule="evenodd" d="M33.037 6.95366C34.6367 6.95366 35.9339 7.99754 35.9339 9.28558C35.9339 10.5734 34.6367 11.6175 33.037 11.6175C31.4369 11.6175 30.1402 10.5734 30.1402 9.28558C30.1402 7.99754 31.4369 6.95366 33.037 6.95366ZM33.1593 28.6845C31.8373 23.313 24.2586 14.0871 27.2641 6.29632C27.6574 9.30317 29.0075 13.2593 33.1593 16.1806C37.0792 13.7845 38.2613 8.99296 38.6547 5.9861C42.1415 14.9019 33.8641 23.947 33.1593 28.6845ZM15.3507 4.71507C17.3289 4.71507 18.9335 6.00551 18.9335 7.59906C18.9335 9.19141 17.3289 10.4822 15.3507 10.4822C13.3725 10.4822 11.768 9.19141 11.768 7.59906C11.768 6.00551 13.3725 4.71507 15.3507 4.71507ZM50.7232 4.71507C52.7013 4.71507 54.3048 6.00551 54.3048 7.59906C54.3048 9.19141 52.7013 10.4822 50.7232 10.4822C48.7446 10.4822 47.1403 9.19141 47.1403 7.59906C47.1403 6.00551 48.7446 4.71507 50.7232 4.71507ZM44.6829 0C44.0779 4.77644 45.8409 11.1826 48.6832 14.0246C51.0375 13.3709 56.8529 9.87515 60.6858 2.90907C58.6256 16.9984 45.3877 26.3712 35.4464 29.4704C47.1227 21.8155 39.8148 4.69253 44.6829 0ZM21.3907 0C26.2587 4.69253 18.9497 21.8155 30.6271 29.4704C20.6851 26.3712 6.93451 17.2739 5.38776 2.90907C9.22056 9.87515 15.0349 13.3709 17.3903 14.0246C20.2316 11.1826 21.9956 4.77644 21.3907 0Z" fill="url(#paint0_linear_36_48)"/>
<path fill-rule="evenodd" clip-rule="evenodd" d="M32.9833 49.9687C32.5917 49.2116 29.384 45.9134 24.6992 43.6609C15.5763 39.2742 9.74766 35.8578 7.49935 33.2422C5.21434 30.5849 3.64168 28.8848 1.94305 25.8175C1.72587 25.427 1.63796 25.0042 1.41148 24.1694C0.713976 21.6004 0.174627 19.6075 0.0169105 19.0265C-0.210152 18.1882 1.90786 17.7016 2.86238 19.2188C3.45984 20.1696 4.07783 22.8126 5.63582 24.9582C7.14257 27.0327 8.77291 28.7907 9.53004 29.8669C12.8527 31.2933 15.9227 32.7836 18.7379 34.3351C19.2395 34.6112 22.5203 36.5827 22.9684 36.3191C23.7713 35.845 15.7609 27.6398 18.4871 26.4027C20.9305 25.2946 22.8612 29.279 24.2042 30.5028C26.8764 32.9375 29.241 34.8191 31.0526 36.7543C31.8015 37.5558 32.4634 38.3442 32.9833 39.2719C33.5031 38.3442 34.1646 37.5558 34.9135 36.7543C36.7251 34.8191 39.0898 32.9375 41.7618 30.5028C43.1054 29.279 45.0357 25.2946 47.4789 26.4027C50.2054 27.6398 42.1951 35.845 42.9982 36.3191C43.4459 36.5827 46.7265 34.6112 47.2284 34.3351C50.0436 32.7836 53.1133 31.2933 56.4362 29.8669C57.1934 28.7907 58.8238 27.0327 60.3302 24.9582C61.8885 22.8126 62.5062 20.1696 63.1037 19.2188C64.0584 17.7016 66.1765 18.1882 65.9491 19.0265C65.7915 19.6075 65.252 21.6004 64.5546 24.1694C64.3283 25.0042 64.2405 25.427 64.0231 25.8175C62.3245 28.8848 60.7517 30.5849 58.4668 33.2422C56.2187 35.8578 50.3898 39.2742 41.2668 43.6609C36.6121 45.8991 33.4813 49.2009 32.9833 49.9687ZM9.91406 29.7302C9.55759 28.3948 9.43447 26.8613 9.74272 25.2712C10.1224 23.754 10.6264 22.6534 11.0542 21.829C11.7616 20.4667 12.8424 21.0345 13.2078 21.961C13.5493 22.8253 13.4118 24.0852 13.1554 25.1909C12.7321 27.0169 12.5386 29.2781 13.2565 31.2211C12.129 30.6899 11.1076 30.2452 9.91406 29.7302ZM13.6597 31.4251C13.3462 30.4364 13.1346 29.4278 13.1171 28.4367C13.1043 27.7966 13.2009 27.1731 13.3119 26.532C13.3968 26.1394 13.515 25.7613 13.6714 25.3989C13.9147 24.8321 14.5314 25.0449 14.7763 25.1794C16.0874 25.8996 15.2034 28.4589 15.5111 29.5202C15.8253 30.5985 16.5019 31.9806 17.4967 33.3446C16.5244 32.8313 15.5247 32.3251 14.4966 31.8267C14.2199 31.6918 13.9405 31.5585 13.6597 31.4251ZM5.3779 23.9961C5.53487 21.9262 5.7146 20.4086 5.91889 19.4427C6.13353 18.4332 7.85163 19.0965 8.38977 19.9386C9.12519 21.0911 9.47162 22.7011 9.15649 25.3601C8.99577 26.7107 9.0795 28.0083 9.40346 29.1831C9.11111 28.809 8.75823 28.3848 8.37031 27.9167C7.62965 27.0255 6.75691 25.9749 5.92205 24.8239C5.72599 24.5551 5.5449 24.278 5.3779 23.9961ZM56.0521 29.7302C54.8587 30.2452 53.8373 30.6899 52.7096 31.2211C53.4277 29.2781 53.2341 27.0169 52.8108 25.1909C52.5545 24.0852 52.4171 22.8253 52.7582 21.961C53.1237 21.0345 54.2046 20.4667 54.912 21.829C55.3399 22.6534 55.8438 23.754 56.2234 25.2712C56.5316 26.8613 56.4086 28.3948 56.0521 29.7302ZM52.3066 31.4251C52.0255 31.5585 51.7464 31.6918 51.4695 31.8267C50.4416 32.3251 49.4419 32.8313 48.4696 33.3446C49.4643 31.9806 50.141 30.5985 50.4551 29.5202C50.7629 28.4589 49.8788 25.8996 51.19 25.1794C51.4346 25.0449 52.0516 24.8321 52.2946 25.3989C52.4511 25.7613 52.5693 26.1394 52.6544 26.532C52.7652 27.1731 52.8618 27.7966 52.8492 28.4367C52.8315 29.4278 52.6198 30.4364 52.3066 31.4251ZM60.5883 23.9961C60.4216 24.278 60.2402 24.5551 60.0444 24.8239C59.2091 25.9749 58.3365 27.0255 57.596 27.9167C57.208 28.3848 56.8552 28.809 56.5627 29.1831C56.8867 28.0083 56.9707 26.7107 56.8096 25.3601C56.4944 22.7011 56.8411 21.0911 57.5764 19.9386C58.1145 19.0965 59.8325 18.4332 60.0473 19.4427C60.2518 20.4086 60.4315 21.9262 60.5883 23.9961Z" fill="#EED1B2"/>
<defs>
<linearGradient id="paint0_linear_36_48" x1="33.0368" y1="0" x2="33.0368" y2="29.4704" gradientUnits="userSpaceOnUse">
<stop stop-color="#005364" stop-opacity="0.09"/>
<stop offset="0.47" stop-color="#FFA604"/>
</linearGradient>
</defs>
</svg>
